<svg width="49" height="49" viewBox="0 0 49 49" fill="none" xmlns="http://www.w3.org/2000/svg">
<rect width="49" height="49" rx="5" fill="#BEAEA3"/>
<path d="M17.4997 7.83301H31.4997C36.833 7.83301 41.1663 12.1663 41.1663 17.4997V31.4997C41.1663 34.0634 40.1479 36.5222 38.335 38.335C36.5222 40.1479 34.0634 41.1663 31.4997 41.1663H17.4997C12.1663 41.1663 7.83301 36.833 7.83301 31.4997V17.4997C7.83301 14.9359 8.85146 12.4772 10.6643 10.6643C12.4772 8.85146 14.9359 7.83301 17.4997 7.83301ZM17.1663 11.1663C15.575 11.1663 14.0489 11.7985 12.9237 12.9237C11.7985 14.0489 11.1663 15.575 11.1663 17.1663V31.833C11.1663 35.1497 13.8497 37.833 17.1663 37.833H31.833C33.4243 37.833 34.9504 37.2009 36.0756 36.0756C37.2009 34.9504 37.833 33.4243 37.833 31.833V17.1663C37.833 13.8497 35.1497 11.1663 31.833 11.1663H17.1663ZM33.2497 13.6663C33.8022 13.6663 34.3321 13.8858 34.7228 14.2765C35.1135 14.6672 35.333 15.1971 35.333 15.7497C35.333 16.3022 35.1135 16.8321 34.7228 17.2228C34.3321 17.6135 33.8022 17.833 33.2497 17.833C32.6971 17.833 32.1672 17.6135 31.7765 17.2228C31.3858 16.8321 31.1663 16.3022 31.1663 15.7497C31.1663 15.1971 31.3858 14.6672 31.7765 14.2765C32.1672 13.8858 32.6971 13.6663 33.2497 13.6663ZM24.4997 16.1663C26.7098 16.1663 28.8294 17.0443 30.3922 18.6071C31.955 20.1699 32.833 22.2895 32.833 24.4997C32.833 26.7098 31.955 28.8294 30.3922 30.3922C28.8294 31.955 26.7098 32.833 24.4997 32.833C22.2895 32.833 20.1699 31.955 18.6071 30.3922C17.0443 28.8294 16.1663 26.7098 16.1663 24.4997C16.1663 22.2895 17.0443 20.1699 18.6071 18.6071C20.1699 17.0443 22.2895 16.1663 24.4997 16.1663ZM24.4997 19.4997C23.1736 19.4997 21.9018 20.0265 20.9641 20.9641C20.0265 21.9018 19.4997 23.1736 19.4997 24.4997C19.4997 25.8258 20.0265 27.0975 20.9641 28.0352C21.9018 28.9729 23.1736 29.4997 24.4997 29.4997C25.8258 29.4997 27.0975 28.9729 28.0352 28.0352C28.9729 27.0975 29.4997 25.8258 29.4997 24.4997C29.4997 23.1736 28.9729 21.9018 28.0352 20.9641C27.0975 20.0265 25.8258 19.4997 24.4997 19.4997Z" fill="#613E26"/>
</svg>
