<svg width="49" height="49" viewBox="0 0 49 49" fill="none" xmlns="http://www.w3.org/2000/svg">
<rect width="49" height="49" rx="5" fill="#BEAEA3"/>
<path d="M15.2829 12.834C15.2824 13.7181 14.9308 14.5657 14.3054 15.1906C13.68 15.8154 12.8319 16.1661 11.9479 16.1657C11.0638 16.1652 10.2162 15.8136 9.59134 15.1882C8.96653 14.5628 8.61577 13.7147 8.61621 12.8307C8.61665 11.9466 8.96827 11.099 9.5937 10.4742C10.2191 9.84935 11.0672 9.49858 11.9512 9.49902C12.8353 9.49947 13.6829 9.85108 14.3077 10.4765C14.9326 11.1019 15.2833 11.95 15.2829 12.834ZM15.3829 18.634H8.71621V39.5007H15.3829V18.634ZM25.9162 18.634H19.2829V39.5007H25.8495V28.5507C25.8495 22.4507 33.7995 21.884 33.7995 28.5507V39.5007H40.3829V26.284C40.3829 16.0007 28.6162 16.384 25.8495 21.434L25.9162 18.634Z" fill="#613E26"/>
</svg>
