<svg width="49" height="49" viewBox="0 0 49 49" fill="none" xmlns="http://www.w3.org/2000/svg">
<rect width="49" height="49" rx="5" fill="#BEAEA3"/>
<path d="M32.1669 14.2C31.0279 12.8992 30.4001 11.229 30.4003 9.5H25.2503V30.1667C25.2114 31.2853 24.7395 32.3451 23.9341 33.1225C23.1287 33.8999 22.0529 34.334 20.9336 34.3333C18.5669 34.3333 16.6003 32.4 16.6003 30C16.6003 27.1333 19.3669 24.9833 22.2169 25.8667V20.6C16.4669 19.8333 11.4336 24.3 11.4336 30C11.4336 35.55 16.0336 39.5 20.9169 39.5C26.1503 39.5 30.4003 35.25 30.4003 30V19.5167C32.4886 21.0164 34.9959 21.8211 37.5669 21.8167V16.6667C37.5669 16.6667 34.4336 16.8167 32.1669 14.2Z" fill="#613E26"/>
</svg>
